<svg width="128" height="128" viewBox="0 0 128 128" fill="none" xmlns="http://www.w3.org/2000/svg">
<rect width="128" height="128" rx="30" fill="#212121"/>
<path d="M75.1225 86.6545L94 101.798L87.3673 108L68.7959 93.0633L75.1225 86.6545ZM93.7449 55.2822V60.0372C93.7449 65.688 93.0476 70.753 91.6531 75.2323C90.2585 79.7116 88.2517 83.519 85.6327 86.6545C83.0136 89.79 79.8673 92.1847 76.1939 93.8386C72.5544 95.4925 68.4728 96.3194 63.949 96.3194C59.5612 96.3194 55.5306 95.4925 51.8571 93.8386C48.2177 92.1847 45.0544 89.79 42.3673 86.6545C39.7143 83.519 37.6565 79.7116 36.1939 75.2323C34.7313 70.753 34 65.688 34 60.0372V55.2822C34 49.6314 34.7143 44.5836 36.1429 40.1388C37.6054 35.6595 39.6633 31.8521 42.3163 28.7166C44.9694 25.5467 48.1156 23.1347 51.7551 21.4808C55.4286 19.8269 59.4592 19 63.8469 19C68.3707 19 72.4694 19.8269 76.1429 21.4808C79.8163 23.1347 82.9626 25.5467 85.5816 28.7166C88.2007 31.8521 90.2075 35.6595 91.602 40.1388C93.0306 44.5836 93.7449 49.6314 93.7449 55.2822ZM84 60.0372V55.1789C84 50.6996 83.5408 46.7371 82.6225 43.2915C81.7381 39.8459 80.4286 36.9516 78.6939 34.6086C76.9592 32.2656 74.8503 30.4911 72.3673 29.2851C69.8844 28.0792 67.0442 27.4762 63.8469 27.4762C60.8197 27.4762 58.0646 28.0792 55.5816 29.2851C53.1327 30.4911 51.0238 32.2656 49.2551 34.6086C47.4864 36.9516 46.1259 39.8459 45.1735 43.2915C44.2211 46.7371 43.7449 50.6996 43.7449 55.1789V60.0372C43.7449 64.5509 44.2211 68.5478 45.1735 72.0279C46.1259 75.4735 47.4864 78.385 49.2551 80.7625C51.0578 83.1055 53.2007 84.88 55.6837 86.0859C58.1667 87.2919 60.9218 87.8949 63.949 87.8949C67.1463 87.8949 69.9864 87.2919 72.4694 86.0859C74.9524 84.88 77.0442 83.1055 78.7449 80.7625C80.4796 78.385 81.7891 75.4735 82.6735 72.0279C83.5578 68.5478 84 64.5509 84 60.0372Z" fill="#3232FF"/>
</svg>
